<svg xmlns="http://www.w3.org/2000/svg" xmlns:xlink="http://www.w3.org/1999/xlink" viewBox="0 0 92.41 58.61" width="current" height="current" x="current" y="current"><defs><style>.cls-C1,.cls-C5,.cls-C7{fill:none;}.cls-C2{opacity:0.7;}.cls-C3{clip-path-c:url(#clip-path-c);}.cls-C4{fill:#89b752;}.cls-C5{stroke:#bdbbb8;}.cls-C5,.cls-C7{stroke-miterlimit:10;stroke-width:0.5px;}.cls-C6{fill:#fff;}.cls-C7{stroke:#89b752;}</style><clipPath id="clip-path-c"><rect class="cls-C1" x="51.68" y="2.31" width="22.07" height="19.11"/></clipPath></defs><g id="layer_2" data-name="layer 2"><g id="layer_1-2" data-name="layer 1"><g class="cls-C2"><g class="cls-C3">
<polygon class="cls-C4" points="57.34 21.16 51.97 11.86 57.45 2.56 68.08 2.56 73.46 11.86 68.08 21.16 57.34 21.16"/>
<polygon class="cls-C5" points="57.34 21.16 51.97 11.86 57.45 2.56 68.08 2.56 73.46 11.86 68.08 21.16 57.34 21.16"/>
</g></g><path class="cls-C6" d="M65.06,12.68h1.17a3.82,3.82,0,0,1-.36,1,3.33,3.33,0,0,1-.66.88,3.06,3.06,0,0,1-1,.64,3.59,3.59,0,0,1-1.36.24,3.73,3.73,0,0,1-1.53-.29,3.17,3.17,0,0,1-1.15-.83A3.84,3.84,0,0,1,59.45,13a5.81,5.81,0,0,1-.25-1.72,5.49,5.49,0,0,1,.25-1.68,3.88,3.88,0,0,1,.71-1.3,3.43,3.43,0,0,1,1.15-.83,3.9,3.9,0,0,1,1.53-.29,3.5,3.5,0,0,1,1.38.25,3.71,3.71,0,0,1,1,.63,3.1,3.1,0,0,1,.66.81,3.35,3.35,0,0,1,.34.81H65.05a3.4,3.4,0,0,0-.27-.54,2,2,0,0,0-.43-.49,1.93,1.93,0,0,0-.63-.36,2.58,2.58,0,0,0-.88-.14A2.18,2.18,0,0,0,61,9a3.63,3.63,0,0,0-.66,2.28A3.76,3.76,0,0,0,61,13.6a2.16,2.16,0,0,0,1.83.86,2.33,2.33,0,0,0,.87-.15,2.09,2.09,0,0,0,1.08-1A3.06,3.06,0,0,0,65.06,12.68Z"/><path class="cls-C4" d="M32,4.32V2.47h.8V4.3c.47,0,.95,0,1.41-.08s.85-.07,1.15-.11v.7l-.64.08L33.86,5,33,5c-.31,0-.6,0-.87,0H30.65V4.32Zm2.3-.68h-.81c0-.18.06-.37.1-.58s.06-.41.08-.63,0-.42,0-.63,0-.4,0-.58H31.24V.47h3.32c0,.21,0,.46,0,.74s0,.57-.06.86-.06.57-.1.85S34.31,3.43,34.27,3.64Zm-1.9,2.24h.81V7.49H36.6v.74H32.37Zm4.12-2.32V6.08h-.8V.24h.8v2.6h1v.72ZM38,4.48V3.75h6.83v.73Zm4.36-1.76a3.51,3.51,0,0,1-.55-.47,2.22,2.22,0,0,1-.4-.54,2.31,2.31,0,0,1-.39.51,3.65,3.65,0,0,1-.52.45,4.48,4.48,0,0,1-.61.39,4.67,4.67,0,0,1-.61.28l-.41-.61a4.83,4.83,0,0,0,.69-.31,3.87,3.87,0,0,0,.7-.5,2.9,2.9,0,0,0,.48-.58,1.3,1.3,0,0,0,.19-.68V.26h.93v.4a1.35,1.35,0,0,0,.2.7,2.3,2.3,0,0,0,.5.58,2.74,2.74,0,0,0,.68.49,3.8,3.8,0,0,0,.69.29l-.4.62a3.17,3.17,0,0,1-.58-.25A3.64,3.64,0,0,1,42.34,2.72ZM39.29,5.05h.81v.88h2.55V5.05h.82V8.23H39.29Zm3.36,1.58H40.1v.89h2.55ZM48,.91h1.72v.72h-1a2.16,2.16,0,0,1,.4.57,1.57,1.57,0,0,1,.15.68,1.7,1.7,0,0,1-.14.71,1.7,1.7,0,0,1-.37.57,1.79,1.79,0,0,1-.56.38,1.72,1.72,0,0,1-1.36,0,1.65,1.65,0,0,1-.92-1,1.87,1.87,0,0,1-.14-.71A1.57,1.57,0,0,1,46,2.2a1.92,1.92,0,0,1,.39-.57h-1V.91h1.76V0H48Zm.51,1.93a1,1,0,0,0-.08-.41,1,1,0,0,0-.22-.34,1.42,1.42,0,0,0-.3-.25.94.94,0,0,0-.36-.08.86.86,0,0,0-.36.08,1.26,1.26,0,0,0-.31.25,1,1,0,0,0-.21.34,1.15,1.15,0,0,0-.08.41,1.16,1.16,0,0,0,.08.42,1.08,1.08,0,0,0,.21.34,1,1,0,0,0,.31.24.73.73,0,0,0,.36.08.78.78,0,0,0,.36-.08,1.13,1.13,0,0,0,.3-.24,1.11,1.11,0,0,0,.22-.34A1,1,0,0,0,48.5,2.84Zm2.72,4a1.66,1.66,0,0,1-.15.7,1.77,1.77,0,0,1-.38.58,1.76,1.76,0,0,1-1.26.53,1.81,1.81,0,0,1-.69-.14,1.75,1.75,0,0,1-.57-.39,1.77,1.77,0,0,1-.38-.58,1.85,1.85,0,0,1,0-1.41,1.88,1.88,0,0,1,.38-.58,1.92,1.92,0,0,1,.57-.39,1.81,1.81,0,0,1,.69-.14,1.74,1.74,0,0,1,.69.14,1.92,1.92,0,0,1,.57.39,1.88,1.88,0,0,1,.38.58A1.67,1.67,0,0,1,51.22,6.87ZM49.41,7.93a1,1,0,0,0,.71-.31,1.14,1.14,0,0,0,0-1.51.95.95,0,0,0-1.4,0,1,1,0,0,0-.29.76,1.11,1.11,0,0,0,.27.75A.9.9,0,0,0,49.41,7.93Zm1.17-6V.23h.8v4.9h-.8v-1h-1V3.41h1v-.8h-1V1.92Z"/></g></g></svg>