<svg xmlns="http://www.w3.org/2000/svg" xmlns:xlink="http://www.w3.org/1999/xlink" viewBox="0 0 100.97 73.82" width="current" height="current" x="current" y="current"><defs><style>.cls-A1,.cls-A5,.cls-A7{fill:none;}.cls-A2{opacity:0.7;}.cls-A3{clip-path-a:url(#clip-path-a);}.cls-A4{fill:#182855;}.cls-A5{stroke:#bdbbb8;}.cls-A5,.cls-A7{stroke-miterlimit:10;stroke-width:0.5px;}.cls-A6{fill:#fff;}.cls-A7{stroke:#182855;}</style><clipPath id="clip-path-a"><rect class="cls-A1" x="17.24" y="19.12" width="22.07" height="19.11"/></clipPath></defs><g id="layer_2" data-name="layer 2"><g id="layer_1-2" data-name="layer 1"><g class="cls-A2"><g class="cls-A3">
<polygon class="cls-A4" points="22.9 37.98 17.52 28.68 23 19.37 33.64 19.37 39.01 28.68 33.64 37.98 22.9 37.98"/>
<polygon class="cls-A5" points="22.9 37.98 17.52 28.68 23 19.37 33.64 19.37 39.01 28.68 33.64 37.98 22.9 37.98"/>
</g></g><path class="cls-A6" d="M32.2,31.8H31.1l-.81-1.92H26.45l-.81,1.92h-1.1l3.18-7.86H29Zm-2.3-2.92-1.53-3.77-1.54,3.77Z"/><path class="cls-A4" d="M38.93,16.63h.84v-1h.76v6.6h-.76V19.18H38.9a1.78,1.78,0,0,1-.6.56,1.46,1.46,0,0,1-.77.21,1.49,1.49,0,0,1-.69-.16,1.74,1.74,0,0,1-.56-.44,2.17,2.17,0,0,1-.39-.66,2.56,2.56,0,0,1,0-1.61,2.17,2.17,0,0,1,.39-.66,1.74,1.74,0,0,1,.56-.44,1.38,1.38,0,0,1,.69-.17,1.45,1.45,0,0,1,.79.22A1.94,1.94,0,0,1,38.93,16.63Zm-.39,1.25a1.35,1.35,0,0,0-.3-.89.89.89,0,0,0-.71-.37.86.86,0,0,0-.71.37,1.34,1.34,0,0,0-.29.89,1.39,1.39,0,0,0,.29.9.86.86,0,0,0,.71.37.89.89,0,0,0,.71-.37A1.4,1.4,0,0,0,38.54,17.88Zm.69-.52a2.21,2.21,0,0,1,.05.25,2.45,2.45,0,0,1,0,.27,2.64,2.64,0,0,1,0,.29l-.06.28h.55V17.36Zm1.92,5.08V15.51h.79v6.93ZM46,19.52H43v-.7h6.89v.7h-3v.74h1.62v1.93H45.21v.62h3.41v.69H44.34V21.55h3.28v-.61H44.34v-.68H46Zm1.37-1.65a4.43,4.43,0,0,1-.54-.43,2.36,2.36,0,0,1-.4-.51,2.68,2.68,0,0,1-.4.49,3,3,0,0,1-.51.41,4.83,4.83,0,0,1-.62.37,6.33,6.33,0,0,1-.62.26l-.41-.59a4.52,4.52,0,0,0,.71-.31,4.16,4.16,0,0,0,.71-.47,2,2,0,0,0,.47-.57,1.28,1.28,0,0,0,.19-.69v-.34h.93v.34a1.34,1.34,0,0,0,.19.7,2,2,0,0,0,.48.58,3.19,3.19,0,0,0,.69.46,3.67,3.67,0,0,0,.71.29l-.39.6a4.07,4.07,0,0,1-.59-.24A4.48,4.48,0,0,1,47.37,17.87ZM53,16.17h1.72v.72h-1a1.92,1.92,0,0,1,.39.57,1.45,1.45,0,0,1,.16.68,1.85,1.85,0,0,1-.51,1.28,1.79,1.79,0,0,1-.56.38,1.72,1.72,0,0,1-.68.14,1.77,1.77,0,0,1-.69-.14,1.75,1.75,0,0,1-.55-.38,1.7,1.7,0,0,1-.37-.57,1.87,1.87,0,0,1-.13-.71,1.57,1.57,0,0,1,.15-.68,1.73,1.73,0,0,1,.38-.57h-1v-.72h1.75v-.91H53Zm.51,1.93a1.15,1.15,0,0,0-.08-.41,1.17,1.17,0,0,0-.22-.34,1.13,1.13,0,0,0-.3-.24.8.8,0,0,0-.36-.09.74.74,0,0,0-.36.09,1,1,0,0,0-.31.24,1.12,1.12,0,0,0-.21,1.17,1.08,1.08,0,0,0,.21.34,1,1,0,0,0,.31.24.73.73,0,0,0,.36.08.78.78,0,0,0,.36-.08,1.13,1.13,0,0,0,.3-.24,1.33,1.33,0,0,0,.22-.34A1.16,1.16,0,0,0,53.54,18.1Zm2.71,4a1.65,1.65,0,0,1-.14.7,1.77,1.77,0,0,1-.38.58,1.76,1.76,0,0,1-1.26.53,1.77,1.77,0,0,1-.69-.14,1.75,1.75,0,0,1-.57-.39,1.77,1.77,0,0,1-.38-.58,1.65,1.65,0,0,1-.14-.7,1.7,1.7,0,0,1,.14-.71,1.88,1.88,0,0,1,.38-.58,1.92,1.92,0,0,1,.57-.39,1.77,1.77,0,0,1,.69-.14,1.74,1.74,0,0,1,.69.14,1.92,1.92,0,0,1,.57.39,1.88,1.88,0,0,1,.38.58A1.7,1.7,0,0,1,56.25,22.13Zm-1.8,1.06a.91.91,0,0,0,.7-.31,1.05,1.05,0,0,0,.3-.75,1.08,1.08,0,0,0-.28-.76.91.91,0,0,0-.7-.31.93.93,0,0,0-.71.31,1.08,1.08,0,0,0-.28.76,1.11,1.11,0,0,0,.27.75A.9.9,0,0,0,54.45,23.19Zm1.17-6V15.49h.8v4.9h-.8v-1H54.56v-.69h1.06v-.8h-1v-.69Z"/></g></g></svg>