<svg xmlns="http://www.w3.org/2000/svg" xmlns:xlink="http://www.w3.org/1999/xlink" viewBox="0 0 136.35 58.07" width="current" height="current" x="current" y="current">
<defs>
<style>.cls-R1,.cls-R5,.cls-R7{fill:none;}.cls-R2{opacity:0.7;}.cls-R3{clip-path-r:url(#clip-path-r);}.cls-R4{fill:#d78340;}.cls-R5{stroke:#bdbbb8;}.cls-R5,.cls-R7{stroke-miterlimit:10;stroke-width:0.5px;}.cls-R6{fill:#fff;}.cls-R7{stroke:#d78340;}
</style>
<clipPath id="clip-path-r" transform="translate(0 0)">
<rect class="cls-R1" x="114.28" width="22.07" height="19.11"/>
</clipPath>
</defs><g id="layer_2" data-name="layer 2"><g id="layer_1-2" data-name="layer 1"><g class="cls-R2"><g class="cls-R3">
<polygon class="cls-R4" points="119.94 18.86 114.57 9.55 120.05 0.25 130.69 0.25 136.06 9.55 130.69 18.86 119.94 18.86"/>
<polygon class="cls-R5" points="119.94 18.86 114.57 9.55 120.05 0.25 130.69 0.25 136.06 9.55 130.69 18.86 119.94 18.86"/>
</g></g><path class="cls-R6" d="M129.29,13.1H128l-2.27-3.26H124v3.25h-1V5.22h3.22a3.32,3.32,0,0,1,1.06.17,2.87,2.87,0,0,1,.86.47,2.22,2.22,0,0,1,.57.72,2.09,2.09,0,0,1,.2.94,2,2,0,0,1-.55,1.4,2.88,2.88,0,0,1-1.34.83Zm-3.11-4.25a1.75,1.75,0,0,0,.55-.08,1.45,1.45,0,0,0,.5-.24,1.22,1.22,0,0,0,.37-.41,1.27,1.27,0,0,0,.14-.6,1.13,1.13,0,0,0-.46-1,1.76,1.76,0,0,0-1-.32H124V8.85Z" transform="translate(0 0)"/><path class="cls-R4" d="M97.82,16.22l-.44.59a3,3,0,0,1-.48-.28,2.32,2.32,0,0,1-.44-.39,2.39,2.39,0,0,1-.38-.46,2.47,2.47,0,0,1-.26-.47,1.91,1.91,0,0,1-.25.46,5.32,5.32,0,0,1-.37.46,6.37,6.37,0,0,1-.55.5,4.46,4.46,0,0,1-.57.39l-.47-.57a5.86,5.86,0,0,0,.8-.63,3.05,3.05,0,0,0,.59-.76,3,3,0,0,0,.28-.71,3.25,3.25,0,0,0,.1-.85v-.42h.87v.48a3.38,3.38,0,0,0,.1.86,2.6,2.6,0,0,0,.3.72,2.47,2.47,0,0,0,.5.61A3,3,0,0,0,97.82,16.22Zm-2.37,2.61h3.1v-.65h-3.1v-.69h4v2H96.33v.71h3.25v.71H95.45Zm3.26-1.75V12.9h.8v4.18Zm3.47-2.95h-1.05v-.77H104v.77h-1v.36a4.94,4.94,0,0,0,.07.89,2.93,2.93,0,0,0,.22.76,3.37,3.37,0,0,0,.4.68,5,5,0,0,0,.64.68l-.41.52a1.85,1.85,0,0,1-.38-.32,3.91,3.91,0,0,1-.37-.44,2.83,2.83,0,0,1-.32-.45,2.51,2.51,0,0,1-.22-.43,2.88,2.88,0,0,1-.21.44,5.56,5.56,0,0,1-.71.93,4.86,4.86,0,0,1-.42.39l-.49-.51a4.84,4.84,0,0,0,.7-.76,3.38,3.38,0,0,0,.44-.78,3.5,3.5,0,0,0,.2-.74,5.53,5.53,0,0,0,.06-.84Zm4,1V12.92H107v6.93h-.79V15.93h-.86v3.71h-.75V13.05h.75v2Zm4.55-1.52h1.72v.72h-1a1.92,1.92,0,0,1,.39.57,1.45,1.45,0,0,1,.16.68,1.85,1.85,0,0,1-.51,1.28,1.79,1.79,0,0,1-.56.38,1.72,1.72,0,0,1-.68.14,1.77,1.77,0,0,1-.69-.14,1.75,1.75,0,0,1-.55-.38,1.7,1.7,0,0,1-.37-.57,1.87,1.87,0,0,1-.13-.71,1.57,1.57,0,0,1,.15-.68,1.73,1.73,0,0,1,.38-.57h-1v-.72h1.75v-.91h.88Zm.51,1.93a1.15,1.15,0,0,0-.08-.41,1.32,1.32,0,0,0-.52-.59.8.8,0,0,0-.36-.09.74.74,0,0,0-.36.09,1.07,1.07,0,0,0-.31.25,1.12,1.12,0,0,0-.21,1.17,1.08,1.08,0,0,0,.21.34,1,1,0,0,0,.31.24.73.73,0,0,0,.36.08.78.78,0,0,0,.36-.08,1.13,1.13,0,0,0,.3-.24,1.33,1.33,0,0,0,.22-.34A1.16,1.16,0,0,0,111.28,15.51Zm2.71,4a1.65,1.65,0,0,1-.14.7,1.77,1.77,0,0,1-.38.58,1.76,1.76,0,0,1-1.26.53,1.77,1.77,0,0,1-.69-.14,1.75,1.75,0,0,1-.57-.39,1.77,1.77,0,0,1-.38-.58,1.85,1.85,0,0,1,0-1.41,1.88,1.88,0,0,1,.38-.58,1.92,1.92,0,0,1,.57-.39,1.77,1.77,0,0,1,.69-.14,1.74,1.74,0,0,1,.69.14,1.92,1.92,0,0,1,.57.39,1.88,1.88,0,0,1,.38.58A1.67,1.67,0,0,1,114,19.54Zm-1.8,1.06a.91.91,0,0,0,.7-.31,1.05,1.05,0,0,0,.3-.75,1.08,1.08,0,0,0-.28-.76.91.91,0,0,0-.7-.31.93.93,0,0,0-.71.31,1.08,1.08,0,0,0-.28.76,1.11,1.11,0,0,0,.27.75A.9.9,0,0,0,112.19,20.6Zm1.17-6V12.9h.8v4.9h-.8v-1H112.3v-.69h1.06v-.8h-1v-.69Z" transform="translate(0 0)"/></g></g></svg>