<svg xmlns="http://www.w3.org/2000/svg" xmlns:xlink="http://www.w3.org/1999/xlink" viewBox="0 0 155.22 41.52" width="current" height="current" x="current" y="current"><defs><style>.cls-S1,.cls-S5,.cls-S7{fill:none;}.cls-S2{opacity:0.7;}.cls-S3{clip-path-s:url(#clip-path-s);}.cls-S4{fill:#2a3d7e;}.cls-S5{stroke:#bdbbb8;}.cls-S5,.cls-S7{stroke-miterlimit:10;stroke-width:0.5px;}.cls-S6{fill:#fff;}.cls-S7{stroke:#2a3d7e;}</style><clipPath id="clip-path-s"><rect class="cls-S1" x="22.38" y="19.05" width="22.07" height="19.11"/></clipPath></defs><g id="layer_2" data-name="layer 2"><g id="layer_1-2" data-name="layer 1"><g class="cls-S2"><g class="cls-S3">
<polygon class="cls-S4" points="28.04 37.91 22.67 28.6 28.15 19.3 38.78 19.3 44.16 28.6 38.78 37.91 28.04 37.91"/>
<polygon class="cls-S5" points="28.04 37.91 22.67 28.6 28.15 19.3 38.78 19.3 44.16 28.6 38.78 37.91 28.04 37.91"/>
</g></g><path class="cls-S6" d="M35.11,28.25a2.46,2.46,0,0,1,1.06.89,1.82,1.82,0,0,1,.29,1.27,3,3,0,0,1-.29.87,2.43,2.43,0,0,1-.6.72,3.14,3.14,0,0,1-.93.48,4,4,0,0,1-1.25.18A3.32,3.32,0,0,1,32,32.4a3.1,3.1,0,0,1-1-.67,2.7,2.7,0,0,1-.59-.95,3.26,3.26,0,0,1-.2-1.06h1.13A2,2,0,0,0,32,31.19a2,2,0,0,0,1.43.5,1.94,1.94,0,0,0,1.3-.37,1.73,1.73,0,0,0,.57-.94.85.85,0,0,0-.14-.73,2.15,2.15,0,0,0-.67-.51,3.62,3.62,0,0,0-.56-.17l-.58-.1-.61-.1a3,3,0,0,1-.61-.18,3.42,3.42,0,0,1-1.21-.78,1.8,1.8,0,0,1-.38-1.29,2,2,0,0,1,.18-.81,2.27,2.27,0,0,1,.55-.73,2.68,2.68,0,0,1,.87-.54,3.29,3.29,0,0,1,1.22-.2,3.14,3.14,0,0,1,1.38.27,2.85,2.85,0,0,1,.89.67,2.76,2.76,0,0,1,.47.85,2.39,2.39,0,0,1,.14.78H35.1a1.64,1.64,0,0,0-.43-1.14,1.66,1.66,0,0,0-1.33-.49,1.64,1.64,0,0,0-1.23.43,1.28,1.28,0,0,0-.4.91.89.89,0,0,0,.3.75,1.91,1.91,0,0,0,.66.35,2,2,0,0,0,.49.14l.61.11.67.16A4.37,4.37,0,0,1,35.11,28.25Z"/><path class="cls-S4" d="M4.37,37.54l-.48.56a3.35,3.35,0,0,1-.47-.35A5,5,0,0,1,3,37.3a5.17,5.17,0,0,1-.42-.51,3.39,3.39,0,0,1-.3-.51,3.47,3.47,0,0,1-.3.52,4.84,4.84,0,0,1-.42.5L1,37.81c-.19.16-.35.29-.49.39L0,37.66a5.41,5.41,0,0,0,.88-.82A3.67,3.67,0,0,0,1.45,36a3.84,3.84,0,0,0,.27-.85,6.21,6.21,0,0,0,.08-1v-.7h.84v.68a6,6,0,0,0,.1,1.09,3.18,3.18,0,0,0,.3.9,2.81,2.81,0,0,0,.53.76A5.76,5.76,0,0,0,4.37,37.54Zm1.41-2.11H6.84v.72H5.78V40H5V33.09h.8Zm3.54,1.93a1.54,1.54,0,0,1-.9-.6,1.77,1.77,0,0,1-.35-1.08A1.58,1.58,0,0,1,8.22,35a1.64,1.64,0,0,1,.38-.55H7.69v-.72H9.3v-.89h.84v.89h1.52v.72h-.89a1.69,1.69,0,0,1,.4.55,1.58,1.58,0,0,1,.15.69,1.68,1.68,0,0,1-.32,1,1.6,1.6,0,0,1-.83.61V38l1.12-.07.89-.09v.69c-.17,0-.38.06-.64.08s-.53,0-.83.06-.6,0-.91.06l-.87,0H7.44V38H9.32Zm1.28-1.71a1,1,0,0,0-.28-.71.81.81,0,0,0-1.26,0,1,1,0,0,0-.28.71,1,1,0,0,0,.28.7.81.81,0,0,0,1.26,0A1,1,0,0,0,10.6,35.65Zm2,4.28V33.09h.8v6.84Zm4.73-6.18H19v.72H18a2.16,2.16,0,0,1,.4.57,1.57,1.57,0,0,1,.15.68A1.85,1.85,0,0,1,18.06,37a1.79,1.79,0,0,1-.56.38,1.72,1.72,0,0,1-1.36,0,1.79,1.79,0,0,1-.56-.38,1.85,1.85,0,0,1-.36-.57,1.87,1.87,0,0,1-.14-.71,1.57,1.57,0,0,1,.15-.68,1.92,1.92,0,0,1,.39-.57h-1v-.72H16.4v-.91h.88Zm.51,1.94a1,1,0,0,0-.09-.42,1.11,1.11,0,0,0-.22-.34,1,1,0,0,0-.3-.24.74.74,0,0,0-.36-.09.77.77,0,0,0-.36.09,1.18,1.18,0,0,0-.31.24,1.08,1.08,0,0,0-.21.34,1.16,1.16,0,0,0-.08.42,1.15,1.15,0,0,0,.08.41,1,1,0,0,0,.21.34,1.18,1.18,0,0,0,.31.24.77.77,0,0,0,.36.09.74.74,0,0,0,.36-.09,1.23,1.23,0,0,0,.52-.58A1,1,0,0,0,17.79,35.69Zm2.71,4a1.87,1.87,0,0,1-.14.71A2.27,2.27,0,0,1,20,41a1.79,1.79,0,0,1-.56.38,1.8,1.8,0,0,1-1.39,0,1.73,1.73,0,0,1-.57-.38,2,2,0,0,1-.38-.58,1.86,1.86,0,0,1,.38-2A1.73,1.73,0,0,1,18,38a1.69,1.69,0,0,1,1.39,0,1.79,1.79,0,0,1,.56.38,2.11,2.11,0,0,1,.39.58A1.87,1.87,0,0,1,20.5,39.71Zm-1.81,1.06a1,1,0,0,0,.71-.31,1,1,0,0,0,.29-.75,1.1,1.1,0,0,0-.28-.76.89.89,0,0,0-.69-.31A.92.92,0,0,0,18,39a1.11,1.11,0,0,0-.29.76,1.08,1.08,0,0,0,.28.75A.86.86,0,0,0,18.69,40.77Zm1.17-6V33.08h.81V38h-.81V37H18.81v-.7h1.05v-.8h-1v-.69Z"/></g></g></svg>