<svg xmlns="http://www.w3.org/2000/svg" xmlns:xlink="http://www.w3.org/1999/xlink" viewBox="0 0 147.17 35.06" width="current" height="current" x="current" y="current"><defs><style>.cls-E1,.cls-E5,.cls-E7{fill:none;}.cls-E2{opacity:0.7;}.cls-E3{clip-path-e:url(#clip-path-e);}.cls-E4{fill:#649ad1;}.cls-E5{stroke:#bdbbb8;}.cls-E5,.cls-E7{stroke-miterlimit:10;stroke-width:0.5px;}.cls-E6{fill:#fff;}.cls-E7{stroke:#649ad1;}</style><clipPath id="clip-path-e"><rect class="cls-E1" x="86.04" y="12.9" width="22.07" height="19.11"/></clipPath></defs><g id="layer_2" data-name="layer 2"><g id="layer_1-2" data-name="layer 1"><g class="cls-E2"><g class="cls-E3">
<polygon class="cls-E4" points="91.7 31.75 86.33 22.45 91.81 13.15 102.44 13.15 107.81 22.45 102.44 31.75 91.7 31.75"/>
<polygon class="cls-E5" points="91.7 31.75 86.33 22.45 91.81 13.15 102.44 13.15 107.81 22.45 102.44 31.75 91.7 31.75"/>
</g></g>
<polygon class="cls-E6" points="100.01 26.2 94.42 26.2 94.42 18.34 99.93 18.34 99.93 19.31 95.47 19.31 95.47 21.65 99.73 21.65 99.73 22.62 95.47 22.62 95.47 25.25 100.01 25.25 100.01 26.2"/>
<path class="cls-E4" d="M111.51,31.72l-.5-.55a5.46,5.46,0,0,0,1-.6,5.18,5.18,0,0,0,.84-.78,4.74,4.74,0,0,0,.61-.92,3.18,3.18,0,0,0,.3-1h-2.27v-.75h3.2a5.72,5.72,0,0,1-.26,1.46,5.23,5.23,0,0,1-1.58,2.34A6.9,6.9,0,0,1,111.51,31.72Zm4.38,1.78V26.62h.82V33.5Zm2.3-4.76a1.94,1.94,0,0,1,.14-.76,2,2,0,0,1,.39-.62,2.06,2.06,0,0,1,.58-.42,1.76,1.76,0,0,1,1.42,0,2.21,2.21,0,0,1,.58.42,2.18,2.18,0,0,1,.39.62,2,2,0,0,1,0,1.52,2,2,0,0,1-.39.62,1.83,1.83,0,0,1-.58.42,1.76,1.76,0,0,1-1.42,0,1.73,1.73,0,0,1-.58-.42,1.87,1.87,0,0,1-.39-.62A1.94,1.94,0,0,1,118.19,28.74Zm2.83,0a1.2,1.2,0,0,0-.29-.83.92.92,0,0,0-1.44,0,1.25,1.25,0,0,0-.29.83,1.28,1.28,0,0,0,.29.84.93.93,0,0,0,1.44,0A1.23,1.23,0,0,0,121,28.74Zm-1,2.66h.81v.87h2.33V31.4H124v3.22h-4ZM123.13,33H120.8v.93h2.33Zm.09-4.64V26.61h.8V31h-.8V29.1h-1v-.77Zm4.74-1h1.71V28h-1a2.16,2.16,0,0,1,.4.57,1.57,1.57,0,0,1,.15.68,1.85,1.85,0,0,1-.51,1.28,1.79,1.79,0,0,1-.56.38,1.72,1.72,0,0,1-1.36,0,1.68,1.68,0,0,1-.56-.38,1.85,1.85,0,0,1-.36-.57,1.87,1.87,0,0,1-.14-.71,1.57,1.57,0,0,1,.15-.68,1.92,1.92,0,0,1,.39-.57h-1v-.72h1.76v-.91H128Zm.51,1.93a1,1,0,0,0-.09-.41,1.23,1.23,0,0,0-.52-.58.77.77,0,0,0-.36-.09.74.74,0,0,0-.36.09,1,1,0,0,0-.31.24,1,1,0,0,0-.21.34,1.15,1.15,0,0,0-.08.41,1.16,1.16,0,0,0,.08.42,1.08,1.08,0,0,0,.21.34,1,1,0,0,0,.31.24.73.73,0,0,0,.36.08.76.76,0,0,0,.36-.08,1,1,0,0,0,.3-.24,1.11,1.11,0,0,0,.22-.34A1,1,0,0,0,128.47,29.22Zm2.71,4a1.78,1.78,0,0,1-.14.7,2,2,0,0,1-.39.58,1.77,1.77,0,0,1-2,.39,1.75,1.75,0,0,1-.57-.39,1.85,1.85,0,0,1-.52-1.28,1.85,1.85,0,0,1,.52-1.29,1.92,1.92,0,0,1,.57-.39,1.8,1.8,0,0,1,1.39,0,2,2,0,0,1,.56.39,2.11,2.11,0,0,1,.39.58A1.87,1.87,0,0,1,131.18,33.25Zm-1.81,1.06a1,1,0,0,0,.71-.31,1.14,1.14,0,0,0,0-1.51.9.9,0,0,0-.7-.31.91.91,0,0,0-.7.31,1,1,0,0,0-.29.76,1.11,1.11,0,0,0,.27.75A.9.9,0,0,0,129.37,34.31Zm1.17-6V26.61h.8v4.9h-.8v-1h-1v-.69h1V29h-1V28.3Z"/></g></g></svg>