<svg xmlns="http://www.w3.org/2000/svg" xmlns:xlink="http://www.w3.org/1999/xlink" viewBox="0 0 149.94 41.52" width="current" height="current" x="current" y="current"><defs><style>.cls-I1,.cls-I5,.cls-I7{fill:none;}.cls-I2{opacity:0.7;}.cls-I3{clip-path-i:url(#clip-path-i);}.cls-I4{fill:#74397f;}.cls-I5{stroke:#bdbbb8;}.cls-I5,.cls-I7{stroke-miterlimit:10;stroke-width:0.5px;}.cls-I6{fill:#fff;}.cls-I7{stroke:#74397f;}</style><clipPath id="clip-path-i"><rect class="cls-I1" x="37.96" y="1.71" width="22.07" height="19.11"/></clipPath></defs><g id="layer_2" data-name="layer 2"><g id="layer_1-2" data-name="layer 1"><g class="cls-I2"><g class="cls-I3">
<polygon class="cls-I4" points="43.62 20.57 38.25 11.27 43.73 1.96 54.36 1.96 59.73 11.27 54.36 20.57 43.62 20.57"/>
<polygon class="cls-I5" points="43.62 20.57 38.25 11.27 43.73 1.96 54.36 1.96 59.73 11.27 54.36 20.57 43.62 20.57"/>
</g></g><rect class="cls-I6" x="48.62" y="6.74" width="1.04" height="7.86"/><path class="cls-I4" d="M62.62,1.23v.94h2.32v.69H62.62v1h1.27l.68,0,.71-.06.66-.08v.7l-.66.09-.77.07-.74,0-.56,0H61.79V.53H65v.7Zm.65,7V5.42h3.95V8.23Zm.81-2.09V7.52h2.33V6.14Zm3.16-4.06h1.05v.76H67.24V5h-.81V.24h.81ZM73,4c0-.2.07-.41.11-.66s.07-.48.09-.73.05-.47.07-.69,0-.41,0-.55H70V.62h4.17c0,.23,0,.49,0,.78s0,.59-.08.89-.07.62-.12.92-.09.56-.14.8h1.6v.72H72.57V7.31H71.7V4.73H68.8V4Zm5.7-3.1h1.71v.72h-1a2.16,2.16,0,0,1,.4.57,1.57,1.57,0,0,1,.15.68,1.7,1.7,0,0,1-.14.71,1.7,1.7,0,0,1-.37.57,1.79,1.79,0,0,1-.56.38,1.72,1.72,0,0,1-1.36,0A1.68,1.68,0,0,1,77,4.16a1.85,1.85,0,0,1-.36-.57,1.87,1.87,0,0,1-.14-.71,1.57,1.57,0,0,1,.15-.68,1.92,1.92,0,0,1,.39-.57h-1V.91h1.76V0h.88Zm.51,1.93a1,1,0,0,0-.09-.41,1,1,0,0,0-.22-.34,1.21,1.21,0,0,0-.3-.25.9.9,0,0,0-.36-.08.86.86,0,0,0-.36.08,1.26,1.26,0,0,0-.31.25,1,1,0,0,0-.21.34,1.15,1.15,0,0,0-.08.41,1.16,1.16,0,0,0,.08.42,1.08,1.08,0,0,0,.21.34,1,1,0,0,0,.31.24.73.73,0,0,0,.36.08.76.76,0,0,0,.36-.08,1,1,0,0,0,.3-.24,1.11,1.11,0,0,0,.22-.34A1,1,0,0,0,79.25,2.84Zm2.71,4a1.82,1.82,0,0,1-.14.7,2,2,0,0,1-.39.58,1.77,1.77,0,0,1-2,.39,1.75,1.75,0,0,1-.57-.39,1.77,1.77,0,0,1-.38-.58,1.85,1.85,0,0,1,0-1.41,1.88,1.88,0,0,1,.38-.58,1.92,1.92,0,0,1,.57-.39,1.8,1.8,0,0,1,1.39,0,2,2,0,0,1,.56.39,2.11,2.11,0,0,1,.39.58A1.83,1.83,0,0,1,82,6.87ZM80.15,7.93a1,1,0,0,0,.71-.31,1,1,0,0,0,.29-.75,1.08,1.08,0,0,0-.28-.76.9.9,0,0,0-.7-.31.91.91,0,0,0-.7.31,1.09,1.09,0,0,0-.29.76,1.08,1.08,0,0,0,.28.75A.86.86,0,0,0,80.15,7.93Zm1.17-6V.23h.81v4.9h-.81v-1h-1V3.41h1v-.8h-1V1.92Z"/></g></g></svg>