<svg xmlns="http://www.w3.org/2000/svg" viewBox="0 0 59.7 18.27"><defs><style>.cdi-icon-c1{fill:#89b752;}</style></defs><g id="layer_2" data-name="layer 2"><g id="layer_1-2" data-name="layer 1"><rect class="cdi-icon-c1" x="8.95" y="12.53" width="3.19" height="0.74"/><path class="cdi-icon-c1" d="M9.35,7.28a.37.37,0,0,0-.36.1L7,9.45,5,7.38a.37.37,0,0,0-.36-.1A5.84,5.84,0,0,0,0,13.09V17.9a.38.38,0,0,0,.37.37H13.61A.37.37,0,0,0,14,17.9V13.09A5.84,5.84,0,0,0,9.35,7.28M6.77,12h.38l.68,3.72L7,17l-.92-1.29Zm.47-.73H6.73l-.25-.44.25-.44h.51l.25.44ZM.73,13.09a5.11,5.11,0,0,1,3.89-5L6.23,9.72l0,0-.53.92a.33.33,0,0,0,0,.36l.36.63-.8,4.09a.39.39,0,0,0,0,.28l1.06,1.49H.73Zm12.52,4.44H7.52l1-1.5a.42.42,0,0,0,.06-.27l-.74-4L8.23,11a.33.33,0,0,0,0-.36l-.52-.92L9.36,8.05a5.11,5.11,0,0,1,3.89,5Z"/><path class="cdi-icon-c1" d="M7,7.49a3.17,3.17,0,0,0,3.16-3.16V3.16a3.16,3.16,0,1,0-6.31,0V4.33A3.16,3.16,0,0,0,7,7.49M4.57,3.16A2.42,2.42,0,0,1,9.4,2.92H7.67a1.33,1.33,0,0,1-1.29-.84.35.35,0,0,0-.46-.23.36.36,0,0,0-.23.46,2,2,0,0,0,2,1.34H9.41v.67a2.42,2.42,0,0,1-4.84,0Z"/><path class="cdi-icon-c1" d="M18.29,12.22V9.83h1v2.36c.61,0,1.22-.06,1.83-.1L22.63,12v.89c-.22,0-.49.08-.82.11L20.72,13l-1.17.07c-.4,0-.77,0-1.12,0H16.58v-.91Zm3-.89H20.2c.05-.22.09-.47.13-.74s.08-.54.11-.82,0-.54.07-.81,0-.51,0-.75H17.34v-1h4.29c0,.28,0,.6,0,1s-.05.73-.09,1.11-.07.73-.12,1.09S21.3,11.07,21.25,11.33Zm-2.45,2.9h1.05v2.08h4.42v1H18.8Zm5.33-3v3.24h-1V7h1V10.3h1.34v.94Zm1.92,1.18v-.94h8.82v.94Zm5.63-2.27a5.69,5.69,0,0,1-.7-.6,2.87,2.87,0,0,1-.52-.71,3.13,3.13,0,0,1-.51.67,7.54,7.54,0,0,1-.67.58,7.94,7.94,0,0,1-.78.5c-.27.14-.54.26-.79.36l-.54-.79a5.14,5.14,0,0,0,.89-.4A4.51,4.51,0,0,0,29,9.11a3.35,3.35,0,0,0,.61-.75,1.66,1.66,0,0,0,.25-.88V7H31v.51a1.72,1.72,0,0,0,.26.91,3,3,0,0,0,.64.75,4.16,4.16,0,0,0,.88.63,4.72,4.72,0,0,0,.9.38l-.52.8a6.58,6.58,0,0,1-.76-.32A6.88,6.88,0,0,1,31.68,10.15Zm-3.94,3h1.05V14.3h3.3V13.16h1v4.12h-5.4Zm4.35,2h-3.3v1.14h3.3ZM39,7.81h2.22v.93H40a2.52,2.52,0,0,1,.51.73,2.06,2.06,0,0,1,.2.88,2.36,2.36,0,0,1-.18.92A2.48,2.48,0,0,1,40,12a2.36,2.36,0,0,1-.72.49A2.23,2.23,0,0,1,36.81,12a2.48,2.48,0,0,1-.48-.74,2.55,2.55,0,0,1-.17-.92,2.05,2.05,0,0,1,.19-.88,2.49,2.49,0,0,1,.5-.73H35.59V7.81h2.27V6.63H39Zm.66,2.5a1.4,1.4,0,0,0-.1-.54,1.75,1.75,0,0,0-.28-.44,1.31,1.31,0,0,0-.4-.31,1,1,0,0,0-.93,0,1.16,1.16,0,0,0-.39.31,1.33,1.33,0,0,0-.28.44,1.4,1.4,0,0,0-.1.54,1.39,1.39,0,0,0,.1.53,1.33,1.33,0,0,0,.28.44,1.05,1.05,0,0,0,.39.31,1,1,0,0,0,.47.11,1,1,0,0,0,.46-.11,1.17,1.17,0,0,0,.4-.31,1.75,1.75,0,0,0,.28-.44A1.39,1.39,0,0,0,39.65,10.31Zm3.51,5.2a2.31,2.31,0,0,1-.18.91,2.73,2.73,0,0,1-.5.75,2.29,2.29,0,0,1-.73.49,2.2,2.2,0,0,1-1.79,0,2.33,2.33,0,0,1-.74-.49,2.49,2.49,0,0,1-.49-.75,2.31,2.31,0,0,1-.18-.91,2.36,2.36,0,0,1,.18-.92,2.49,2.49,0,0,1,.49-.75,2.54,2.54,0,0,1,.74-.5,2.32,2.32,0,0,1,1.79,0,2.49,2.49,0,0,1,.73.5,2.73,2.73,0,0,1,.5.75A2.36,2.36,0,0,1,43.16,15.51Zm-2.34,1.37a1.22,1.22,0,0,0,.92-.4,1.38,1.38,0,0,0,.38-1,1.39,1.39,0,0,0-.37-1,1.15,1.15,0,0,0-.89-.41,1.2,1.2,0,0,0-.92.41,1.39,1.39,0,0,0-.37,1,1.44,1.44,0,0,0,.35,1A1.15,1.15,0,0,0,40.82,16.88Zm1.52-7.77V6.93h1v6.33h-1V11.94H41V11h1.37V10H41v-.9Zm5.55,8.53h-.81q-.28-.47-.6-1a10.4,10.4,0,0,1-.58-1.25,9.69,9.69,0,0,1-.44-1.49,8.13,8.13,0,0,1-.18-1.76,8,8,0,0,1,.18-1.75,9.69,9.69,0,0,1,.44-1.49,11.17,11.17,0,0,1,.58-1.25q.32-.57.6-1h.81a13.4,13.4,0,0,0-1.17,2.91,10.47,10.47,0,0,0-.35,2.6,10.54,10.54,0,0,0,.35,2.61A13.2,13.2,0,0,0,47.89,17.64Zm6.79-4.83h1.09a3.91,3.91,0,0,1-.33,1,3.59,3.59,0,0,1-.62.88,3,3,0,0,1-.94.64,3.18,3.18,0,0,1-1.28.24,3.22,3.22,0,0,1-1.42-.29,3,3,0,0,1-1.08-.83,4.09,4.09,0,0,1-.66-1.32,5.89,5.89,0,0,1-.23-1.73,5.62,5.62,0,0,1,.23-1.69,4,4,0,0,1,.66-1.3,3,3,0,0,1,1.08-.83,3.22,3.22,0,0,1,1.42-.3,3.06,3.06,0,0,1,1.29.26,3.57,3.57,0,0,1,.94.62,3,3,0,0,1,.62.82,3.59,3.59,0,0,1,.31.81H54.67a4.34,4.34,0,0,0-.25-.54,2,2,0,0,0-1-.85,2.09,2.09,0,0,0-.83-.14,2,2,0,0,0-1.71.85,3.84,3.84,0,0,0-.61,2.29,4,4,0,0,0,.61,2.35,2,2,0,0,0,1.71.87,2.07,2.07,0,0,0,.82-.15A1.94,1.94,0,0,0,54,14a2,2,0,0,0,.41-.57A3.56,3.56,0,0,0,54.68,12.81Zm3.22-6.2c.18.3.38.64.59,1a11.17,11.17,0,0,1,.58,1.25,12.55,12.55,0,0,1,.45,1.49,8,8,0,0,1,.18,1.75,8.13,8.13,0,0,1-.18,1.76,12.55,12.55,0,0,1-.45,1.49,10.4,10.4,0,0,1-.58,1.25l-.59,1h-.81a14.27,14.27,0,0,0,1.17-2.91,10.54,10.54,0,0,0,.35-2.61,10.47,10.47,0,0,0-.35-2.6,14.5,14.5,0,0,0-1.17-2.91Z"/></g></g></svg>