<svg xmlns="http://www.w3.org/2000/svg" viewBox="0 0 58.67 18.67"><defs><style>.cdi-icon-a1{fill:#182855;}</style></defs><g id="layer_2" data-name="layer 2"><g id="layer_1-2" data-name="layer 1"><path class="cdi-icon-a1" d="M11,8.34a.28.28,0,0,0-.15-.08,7.5,7.5,0,0,0-1.66-.68.38.38,0,0,0-.46.35v3.19H5V7.93a.37.37,0,0,0-.14-.28.37.37,0,0,0-.32-.07A5.73,5.73,0,0,0,0,13.27V18a.36.36,0,0,0,.36.36h13a.36.36,0,0,0,.36-.36V13.27A5.54,5.54,0,0,0,11,8.34m-6.31,3.5H9a.36.36,0,0,0,.36-.36V8.42a5.34,5.34,0,0,1,.94.41v5.85a.68.68,0,0,0,0,.14l1.1,2.82H2.25l1.1-2.82a.68.68,0,0,0,0-.14V8.82a5.81,5.81,0,0,1,.91-.4v3.06a.36.36,0,0,0,.36.36M.72,13.27a4.87,4.87,0,0,1,1.93-4v5.34l-1.18,3H.72ZM13,17.64h-.75l-1.18-3V9.29a4.87,4.87,0,0,1,1.93,4Z"/><path class="cdi-icon-a1" d="M6.85,7.78A3.09,3.09,0,0,0,9.94,4.86a.19.19,0,0,0,0-.08V4h0a1.39,1.39,0,0,0,.38-1.63A3.21,3.21,0,0,0,9.58,1.2L9.78,1A.36.36,0,1,0,9.24.5L9.05.72A3.08,3.08,0,0,0,7.23,0,1.62,1.62,0,0,0,6,.5a1.07,1.07,0,0,0-.26.56.27.27,0,0,0-.12,0,3.07,3.07,0,0,0-1.88,2.7.13.13,0,0,0,0,.06v.84A3.09,3.09,0,0,0,6.85,7.78M6.56,1A.86.86,0,0,1,7.23.72a2.39,2.39,0,0,1,1.34.53.37.37,0,0,0,0,.5.38.38,0,0,0,.24.09.36.36,0,0,0,.26-.11,2.81,2.81,0,0,1,.57.88c.19.55-.07.76-.16.82A.85.85,0,0,1,9,3.62,3.21,3.21,0,0,1,6.59,1.75c-.07-.16-.22-.56,0-.75M4.48,4.59V3.94A2.37,2.37,0,0,1,5.83,1.8L5.92,2a3.93,3.93,0,0,0,3,2.3l.28,0v.37a2.38,2.38,0,1,1-4.75,0Z"/><path class="cdi-icon-a1" d="M20.17,9.23h1.1V8h1v8.52h-1V12.52H20.14a2.43,2.43,0,0,1-.77.73,2,2,0,0,1-1,.27,2,2,0,0,1-.9-.21,2.22,2.22,0,0,1-.72-.57,2.65,2.65,0,0,1-.5-.85,3.09,3.09,0,0,1,0-2.08,2.65,2.65,0,0,1,.5-.85,2.39,2.39,0,0,1,.72-.58,2,2,0,0,1,.9-.21,1.91,1.91,0,0,1,1,.28A2.42,2.42,0,0,1,20.17,9.23Zm-.5,1.61a1.78,1.78,0,0,0-.39-1.15,1.13,1.13,0,0,0-1.83,0,2,2,0,0,0,0,2.32,1.13,1.13,0,0,0,1.83,0A1.8,1.8,0,0,0,19.67,10.84Zm.89-.67c0,.11.05.22.07.33s0,.23,0,.34a2.25,2.25,0,0,1,0,.38,2.29,2.29,0,0,1-.07.36h.72V10.17Zm2.49,6.57V7.79h1v9ZM29.31,13h-3.9v-.89h8.9V13H30.43v1h2.09v2.5H28.3v.8h4.4v.89H27.17V15.59H31.4V14.8H27.17v-.88h2.14Zm1.78-2.13a4.14,4.14,0,0,1-.7-.55,2.75,2.75,0,0,1-.52-.67,3.55,3.55,0,0,1-.52.64,4.9,4.9,0,0,1-.65.54,7.26,7.26,0,0,1-.8.47c-.28.13-.55.25-.81.34l-.53-.77a6.61,6.61,0,0,0,.92-.39,5.12,5.12,0,0,0,.92-.62A3.08,3.08,0,0,0,29,9.09a1.73,1.73,0,0,0,.24-.9V7.76h1.2v.43a1.79,1.79,0,0,0,.24.91,2.79,2.79,0,0,0,.63.74,3.7,3.7,0,0,0,.89.61,5.81,5.81,0,0,0,.91.37l-.49.78a5.48,5.48,0,0,1-.77-.32A5.35,5.35,0,0,1,31.09,10.83Zm7.31-2.2h2.22v.94H39.36a2.61,2.61,0,0,1,.52.73,2.06,2.06,0,0,1,.2.88,2.36,2.36,0,0,1-.18.92,2.44,2.44,0,0,1-.48.73,2.31,2.31,0,0,1-.73.5,2.12,2.12,0,0,1-.87.18,2.18,2.18,0,0,1-.89-.18,2.23,2.23,0,0,1-.71-.5,2.26,2.26,0,0,1-.48-.73,2.35,2.35,0,0,1-.17-.92,2.05,2.05,0,0,1,.19-.88,2.21,2.21,0,0,1,.5-.73H35V8.63h2.28V7.46H38.4Zm.66,2.51A1.24,1.24,0,0,0,39,10.6a1.33,1.33,0,0,0-.28-.44,1.48,1.48,0,0,0-.39-.32,1.07,1.07,0,0,0-.46-.11,1,1,0,0,0-.47.11,1.52,1.52,0,0,0-.4.32,1.3,1.3,0,0,0-.27.44,1.36,1.36,0,0,0,0,1.07,1.42,1.42,0,0,0,.67.75,1,1,0,0,0,.47.11,1.07,1.07,0,0,0,.46-.11,1.27,1.27,0,0,0,.39-.31,1.33,1.33,0,0,0,.28-.44A1.23,1.23,0,0,0,39.06,11.14Zm3.51,5.19a2.37,2.37,0,0,1-.19.92,2.52,2.52,0,0,1-.5.75,2.3,2.3,0,0,1-1.62.67A2.3,2.3,0,0,1,38.63,18a2.49,2.49,0,0,1-.49-.75,2.36,2.36,0,0,1-.18-.92,2.31,2.31,0,0,1,.18-.91,2.29,2.29,0,0,1,1.22-1.25,2.3,2.3,0,0,1,.9-.18,2.18,2.18,0,0,1,.89.18,2.37,2.37,0,0,1,.73.5,2.52,2.52,0,0,1,.5.75A2.32,2.32,0,0,1,42.57,16.33Zm-2.34,1.38a1.24,1.24,0,0,0,.91-.4,1.44,1.44,0,0,0,0-1.95,1.17,1.17,0,0,0-.9-.41,1.19,1.19,0,0,0-.91.41,1.38,1.38,0,0,0-.38,1,1.43,1.43,0,0,0,.36,1A1.18,1.18,0,0,0,40.23,17.71Zm1.51-7.77V7.76h1v6.33h-1V12.76H40.38v-.89h1.36v-1H40.39V9.94Zm5.55,8.52h-.81c-.19-.3-.38-.64-.59-1a11.17,11.17,0,0,1-.59-1.25,11,11,0,0,1-.44-1.49A8.91,8.91,0,0,1,44.69,13a8.73,8.73,0,0,1,.17-1.75,11.56,11.56,0,0,1,.44-1.5,11.89,11.89,0,0,1,.59-1.24c.21-.38.4-.72.59-1h.81a14,14,0,0,0-1.16,2.9,9.91,9.91,0,0,0,0,5.22A13.58,13.58,0,0,0,47.29,18.46Zm8.08-2.3h-1l-.76-1.93H50l-.76,1.93h-1l3-7.9h1.2Zm-2.15-2.93L51.79,9.44l-1.44,3.79Zm3.66-5.79c.18.3.37.64.58,1a11.89,11.89,0,0,1,.59,1.24,11.56,11.56,0,0,1,.44,1.5A8,8,0,0,1,58.67,13a8.2,8.2,0,0,1-.18,1.76,11,11,0,0,1-.44,1.49,11.17,11.17,0,0,1-.59,1.25c-.21.37-.4.71-.58,1h-.81a14.12,14.12,0,0,0,1.16-2.9A10.54,10.54,0,0,0,57.58,13a10.54,10.54,0,0,0-.35-2.61,14.58,14.58,0,0,0-1.16-2.9Z"/></g></g></svg>