<svg xmlns="http://www.w3.org/2000/svg" viewBox="0 0 57.87 18.39"><defs><style>.cdi-icon-r1{fill:#d78340;}</style></defs><g id="layer_2" data-name="layer 2"><g id="layer_1-2" data-name="layer 1"><path class="cdi-icon-r1" d="M21.3,11.54l-.58.75a3.66,3.66,0,0,1-.62-.36,3.78,3.78,0,0,1-.57-.5,3.94,3.94,0,0,1-.49-.59,3.41,3.41,0,0,1-.33-.62,2.5,2.5,0,0,1-.32.6,5.58,5.58,0,0,1-.49.6,7.3,7.3,0,0,1-.71.65,5.82,5.82,0,0,1-.73.49l-.61-.73a8.75,8.75,0,0,0,1-.82,4.12,4.12,0,0,0,.76-1A4.4,4.4,0,0,0,18,9.12,4.28,4.28,0,0,0,18.14,8V7.48h1.12v.61a4.83,4.83,0,0,0,.13,1.11,3.44,3.44,0,0,0,.39.94,3.52,3.52,0,0,0,.64.79A4.88,4.88,0,0,0,21.3,11.54Zm-3.06,3.37h4v-.85h-4v-.88h5.12v2.58h-4v.92h4.2v.92H18.24Zm4.2-2.27V7.24h1v5.4Zm4.49-3.81H25.57v-1h3.71v1H28v.46a6.92,6.92,0,0,0,.09,1.16,3.85,3.85,0,0,0,.29,1,4,4,0,0,0,.52.88,7.21,7.21,0,0,0,.82.88l-.53.67a3.1,3.1,0,0,1-.5-.42,6.79,6.79,0,0,1-.47-.57,4.67,4.67,0,0,1-.41-.58,2.44,2.44,0,0,1-.28-.56,3.73,3.73,0,0,1-.28.57,4.65,4.65,0,0,1-.41.61,7.34,7.34,0,0,1-.51.6,4.1,4.1,0,0,1-.54.5l-.63-.66a5.76,5.76,0,0,0,.9-1,4.88,4.88,0,0,0,.58-1,4.91,4.91,0,0,0,.25-.95,6.2,6.2,0,0,0,.08-1.09Zm5.22,1.25V7.27h1v9h-1V11.15H31V16h-1V7.43h1v2.65Zm5.88-2h2.22v.93H39a2.55,2.55,0,0,1,.52.73,2.06,2.06,0,0,1,.2.88,2.36,2.36,0,0,1-.18.92,2.48,2.48,0,0,1-.48.74,2.29,2.29,0,0,1-.73.49,2.12,2.12,0,0,1-.87.18,2.18,2.18,0,0,1-.89-.18,2.2,2.2,0,0,1-.71-.49,2.48,2.48,0,0,1-.48-.74,2.55,2.55,0,0,1-.17-.92,2.05,2.05,0,0,1,.19-.88,2.31,2.31,0,0,1,.5-.73H34.62V8.12H36.9V6.94H38Zm.66,2.5a1.24,1.24,0,0,0-.11-.54,1.44,1.44,0,0,0-.28-.44,1.16,1.16,0,0,0-.39-.31,1,1,0,0,0-.93,0,1.31,1.31,0,0,0-.4.31,1.62,1.62,0,0,0-.27.44,1.36,1.36,0,0,0,0,1.07,1.68,1.68,0,0,0,.27.45,1.27,1.27,0,0,0,.4.3,1,1,0,0,0,.47.11,1,1,0,0,0,.46-.11,1.14,1.14,0,0,0,.39-.3,1.48,1.48,0,0,0,.28-.45A1.23,1.23,0,0,0,38.69,10.62Zm3.51,5.2a2.15,2.15,0,0,1-.19.91,2.7,2.7,0,0,1-.49.75,2.4,2.4,0,0,1-.73.49,2.11,2.11,0,0,1-.9.19A2.17,2.17,0,0,1,39,18a2.29,2.29,0,0,1-.73-.49,2.49,2.49,0,0,1-.49-.75,2.31,2.31,0,0,1-.18-.91,2.36,2.36,0,0,1,.18-.92A2.29,2.29,0,0,1,39,13.65a2.33,2.33,0,0,1,.9-.18,2.26,2.26,0,0,1,.9.18,2.63,2.63,0,0,1,.73.5,2.7,2.7,0,0,1,.49.75A2.2,2.2,0,0,1,42.2,15.82Zm-2.34,1.37a1.2,1.2,0,0,0,.91-.4,1.34,1.34,0,0,0,.39-1,1.39,1.39,0,0,0-.37-1,1.16,1.16,0,0,0-.9-.41,1.19,1.19,0,0,0-.91.41,1.5,1.5,0,0,0,0,1.95A1.15,1.15,0,0,0,39.86,17.19Zm1.51-7.77V7.24h1v6.33h-1V12.25H40v-.9h1.36v-1H40v-.9ZM46.92,18h-.81l-.59-1a10.39,10.39,0,0,1-.59-1.25,9.71,9.71,0,0,1-.43-1.49,8.13,8.13,0,0,1-.18-1.76,8,8,0,0,1,.18-1.75,9.71,9.71,0,0,1,.43-1.49,11.17,11.17,0,0,1,.59-1.25c.21-.38.41-.72.59-1h.81a13.85,13.85,0,0,0-1.16,2.91,9.87,9.87,0,0,0,0,5.21A13.64,13.64,0,0,0,46.92,18Zm7.54-2.3H53.24l-2.12-3.28H49.54v3.27h-1V7.73h3a2.86,2.86,0,0,1,1,.17,2.5,2.5,0,0,1,.81.47,2.29,2.29,0,0,1,.53.73,2.24,2.24,0,0,1,.2,1,2.12,2.12,0,0,1-.52,1.41,2.67,2.67,0,0,1-1.26.82Zm-2.91-4.26a1.54,1.54,0,0,0,.52-.09,1.31,1.31,0,0,0,.47-.24,1.23,1.23,0,0,0,.34-.41,1.26,1.26,0,0,0,.13-.6,1.2,1.2,0,0,0-.42-1,1.61,1.61,0,0,0-1-.32H49.54v2.67Zm4.53-4.47c.18.3.37.64.58,1a11.17,11.17,0,0,1,.58,1.25,10.93,10.93,0,0,1,.45,1.49,8,8,0,0,1,.18,1.75,8.13,8.13,0,0,1-.18,1.76,10.93,10.93,0,0,1-.45,1.49,10.4,10.4,0,0,1-.58,1.25l-.58,1h-.82A13.71,13.71,0,0,0,56.43,15a10.54,10.54,0,0,0,.35-2.61,10.53,10.53,0,0,0-.35-2.6,13.93,13.93,0,0,0-1.17-2.91Z"/><path class="cdi-icon-r1" d="M9.15,7.63a.35.35,0,0,0-.38.13l-1.92,2.5L4.92,7.76a.35.35,0,0,0-.38-.13A5.72,5.72,0,0,0,0,13.31V18a.36.36,0,0,0,.36.36h13a.36.36,0,0,0,.36-.36V13.31A5.72,5.72,0,0,0,9.15,7.63m1.38,6,.88,4H2.28l.88-4s0-.05,0-.08V9s0,0,0,0a5.12,5.12,0,0,1,.57-.3v4.57a.36.36,0,0,0,.36.36H9.6a.36.36,0,0,0,.36-.36V8.68a5.12,5.12,0,0,1,.57.3s0,0,0,0v4.55s0,0,0,.08m-4-2.58a.36.36,0,0,0,.29.14.35.35,0,0,0,.28-.14L9.2,8.39l0,0v4.48H4.45V8.54a.28.28,0,0,0,0-.13l.07,0ZM.72,13.31A4.85,4.85,0,0,1,2.45,9.48v4l-.9,4.14H.72ZM13,17.67h-.83l-.9-4.14v-4A4.85,4.85,0,0,1,13,13.31Z"/><path class="cdi-icon-r1" d="M3.57,4.42h.18v.32a3.1,3.1,0,0,0,6.19,0V4.42h.18a.64.64,0,0,0,.64-.64.63.63,0,0,0-.52-.63A3.93,3.93,0,0,0,6.84,0,3.93,3.93,0,0,0,3.45,3.15a.63.63,0,0,0-.52.63.64.64,0,0,0,.64.64m5.65.32a2.38,2.38,0,0,1-4.75,0V4.42H9.22ZM7.45.84V2.58H6.24V.84a1.59,1.59,0,0,1,1.21,0M4.14,3.51A3.14,3.14,0,0,1,5.53,1.22V2.94a.36.36,0,0,0,.35.36H7.8a.36.36,0,0,0,.36-.36V1.22A3.14,3.14,0,0,1,9.55,3.51a.33.33,0,0,0,.06.19H4.08a.33.33,0,0,0,.06-.19"/></g></g></svg>