<svg xmlns="http://www.w3.org/2000/svg" viewBox="0 0 58.5 17.82"><defs><style>.cdi-icon-e1{fill:#649ad1;}</style></defs><g id="layer_2" data-name="layer 2"><g id="layer_1-2" data-name="layer 1"><path class="cdi-icon-e1" d="M7.55,1.2A1.14,1.14,0,0,0,7,1.39a1.41,1.41,0,0,0-1.6.18,2.63,2.63,0,0,0-1,1.79.36.36,0,0,0,0,.1v1a.42.42,0,0,0,0,.16,2.64,2.64,0,0,0,5.15.24.37.37,0,0,0,.1-.24v-1h0a2.8,2.8,0,0,0-.84-1.88A1.71,1.71,0,0,0,7.55,1.2m1.37,3a1.91,1.91,0,0,1-3.81,0V3.64a1.89,1.89,0,0,1,.71-1.49.68.68,0,0,1,.93,0,.35.35,0,0,0,.28.1.35.35,0,0,0,.25-.14.4.4,0,0,1,.31-.15.94.94,0,0,1,.7.32,2.06,2.06,0,0,1,.63,1.38Z"/><path class="cdi-icon-e1" d="M2,5.92a1.12,1.12,0,1,0,2.24,0,1.1,1.1,0,0,0-.43-.87,1.14,1.14,0,0,0,.43-.88,1.1,1.1,0,0,0-.13-.51C4.29,1.34,5.75.64,6.93.75H7.1C8.29.64,9.74,1.34,10,3.66a1.1,1.1,0,0,0-.13.51,1.16,1.16,0,0,0,.42.88,1.12,1.12,0,1,0,1.4,0,1.16,1.16,0,0,0,.42-.88A1.12,1.12,0,0,0,11,3.05a1.26,1.26,0,0,0-.33.05A3.34,3.34,0,0,0,7,0H7A3.34,3.34,0,0,0,3.4,3.1a1.26,1.26,0,0,0-.33-.05A1.12,1.12,0,0,0,2,4.17a1.16,1.16,0,0,0,.42.88A1.13,1.13,0,0,0,2,5.92m9,.38a.38.38,0,1,1,.38-.38A.38.38,0,0,1,11,6.3m.38-2.13A.38.38,0,1,1,11,3.79a.38.38,0,0,1,.38.38M3.07,6.3a.38.38,0,1,1,.38-.38.38.38,0,0,1-.38.38m0-2.51a.38.38,0,1,1-.38.38.38.38,0,0,1,.38-.38"/><path class="cdi-icon-e1" d="M10.56,7.22a.36.36,0,0,0-.45.13L7.88,10.58,7.25,8.47,7.51,8l-.29-.49H6.65L6.37,8l.26.44-.52,2L3.92,7.35a.36.36,0,0,0-.45-.13A5.73,5.73,0,0,0,0,12.62v4.83a.38.38,0,0,0,.37.37H13.66a.37.37,0,0,0,.37-.37V12.62a5.73,5.73,0,0,0-3.47-5.4m2.73,9.86H.74V12.62A4.94,4.94,0,0,1,3.5,8l3.21,4.66a.37.37,0,0,0,.31.16.37.37,0,0,0,.3-.16L10.53,8a4.92,4.92,0,0,1,2.76,4.59Z"/><path class="cdi-icon-e1" d="M17.72,12.14l-.65-.71a7.38,7.38,0,0,0,1.25-.77,7.46,7.46,0,0,0,1.09-1,5.88,5.88,0,0,0,.78-1.2,4,4,0,0,0,.39-1.34H17.65v-1h4.13A7,7,0,0,1,21.45,8a6.31,6.31,0,0,1-.79,1.63,6.4,6.4,0,0,1-1.26,1.4A8.51,8.51,0,0,1,17.72,12.14Zm5.67,2.3V5.55h1.05v8.89Zm3-6.15a2.53,2.53,0,0,1,.19-1,2.34,2.34,0,0,1,.51-.79A2.38,2.38,0,0,1,27.79,6a2.24,2.24,0,0,1,.92-.2,2.21,2.21,0,0,1,.92.2,2.69,2.69,0,0,1,.75.55,2.66,2.66,0,0,1,.5.79,2.65,2.65,0,0,1,0,2,2.76,2.76,0,0,1-.5.81,2.62,2.62,0,0,1-.75.53,2.21,2.21,0,0,1-.92.2,2.24,2.24,0,0,1-.92-.2,2.33,2.33,0,0,1-.74-.53,2.42,2.42,0,0,1-.51-.81A2.52,2.52,0,0,1,26.35,8.29Zm3.67,0a1.64,1.64,0,0,0-.38-1.08,1.19,1.19,0,0,0-.93-.45,1.16,1.16,0,0,0-.93.45,1.72,1.72,0,0,0,0,2.16,1.18,1.18,0,0,0,.93.44,1.21,1.21,0,0,0,.93-.44A1.64,1.64,0,0,0,30,8.29Zm-1.34,3.44h1.05v1.11h3V11.73h1v4.15H28.68Zm4.07,2h-3V15h3Zm.1-6V5.54h1V11.2h-1V8.75H31.51v-1ZM39,6.41H41.2v.93H39.94a2.57,2.57,0,0,1,.51.74,1.92,1.92,0,0,1,.2.88,2.46,2.46,0,0,1-.17.91,2.22,2.22,0,0,1-.49.74,2.27,2.27,0,0,1-.72.5,2.22,2.22,0,0,1-3-1.24A2.27,2.27,0,0,1,36.14,9a2.21,2.21,0,0,1,.19-.88,2.57,2.57,0,0,1,.51-.74H35.57V6.41h2.27V5.24H39Zm.66,2.5a1.4,1.4,0,0,0-.11-.53,1.51,1.51,0,0,0-.28-.44,1.35,1.35,0,0,0-.4-.32.92.92,0,0,0-.46-.11,1,1,0,0,0-.47.11,1.31,1.31,0,0,0-.39.32,1.33,1.33,0,0,0-.28.44,1.39,1.39,0,0,0-.1.53,1.4,1.4,0,0,0,.1.54,1.33,1.33,0,0,0,.28.44,1.27,1.27,0,0,0,.39.31,1.12,1.12,0,0,0,.47.11,1,1,0,0,0,.46-.11,1.31,1.31,0,0,0,.4-.31,1.51,1.51,0,0,0,.28-.44A1.41,1.41,0,0,0,39.64,8.91Zm3.5,5.2A2.36,2.36,0,0,1,43,15a2.52,2.52,0,0,1-.5.75,2.29,2.29,0,0,1-.73.49,2.21,2.21,0,0,1-.89.18,2.26,2.26,0,0,1-.9-.18,2.33,2.33,0,0,1-.74-.49,2.7,2.7,0,0,1-.49-.75,2.36,2.36,0,0,1-.18-.92,2.31,2.31,0,0,1,.18-.91,2.7,2.7,0,0,1,.49-.75,2.36,2.36,0,0,1,.74-.5,2.27,2.27,0,0,1,.9-.19,2.22,2.22,0,0,1,.89.19,2.31,2.31,0,0,1,.73.5,2.52,2.52,0,0,1,.5.75A2.31,2.31,0,0,1,43.14,14.11Zm-2.33,1.38a1.23,1.23,0,0,0,.91-.41,1.32,1.32,0,0,0,.38-1,1.4,1.4,0,0,0-.36-1,1.16,1.16,0,0,0-.9-.41,1.18,1.18,0,0,0-.92.41,1.41,1.41,0,0,0-.37,1,1.39,1.39,0,0,0,.36,1A1.16,1.16,0,0,0,40.81,15.49Zm1.51-7.77V5.54h1v6.33h-1V10.54H41V9.65h1.36v-1H41V7.72Zm5.55,8.52h-.81q-.29-.45-.6-1A9.72,9.72,0,0,1,45.88,14a10.55,10.55,0,0,1-.44-1.49,8,8,0,0,1-.18-1.75A8,8,0,0,1,45.44,9a11.56,11.56,0,0,1,.44-1.5,11,11,0,0,1,.58-1.24c.21-.38.41-.72.6-1h.81A13.4,13.4,0,0,0,46.7,8.12a10.19,10.19,0,0,0,0,5.22A13.14,13.14,0,0,0,47.87,16.24Zm6.86-2.3H49.5V6h5.15V7H50.49V9.37h4v1h-4V13h4.24Zm2-8.73.58,1a11,11,0,0,1,.59,1.24A11.56,11.56,0,0,1,58.32,9a8,8,0,0,1,.18,1.75,8,8,0,0,1-.18,1.75A10.55,10.55,0,0,1,57.88,14a9.72,9.72,0,0,1-.59,1.25c-.21.38-.4.72-.58,1H55.9a14.12,14.12,0,0,0,1.16-2.9,10.54,10.54,0,0,0,.35-2.61,10.54,10.54,0,0,0-.35-2.61A14.42,14.42,0,0,0,55.9,5.21Z"/></g></g></svg>