<svg xmlns="http://www.w3.org/2000/svg" viewBox="0 0 53.84 18.62"><defs><style>.cdi-icon-i1{fill:#74397f;}</style></defs><g id="layer_2" data-name="layer 2"><g id="layer_1-2" data-name="layer 1"><path class="cdi-icon-i1" d="M9.19,7.82a.37.37,0,0,0-.46.36s0,2.1-.87,3a1.4,1.4,0,0,1-2,0c-.9-.92-.87-3-.87-3a.36.36,0,0,0-.14-.29.37.37,0,0,0-.32-.07A5.75,5.75,0,0,0,0,13.53v4.73a.36.36,0,0,0,.36.36h13a.36.36,0,0,0,.36-.36V13.53A5.75,5.75,0,0,0,9.19,7.82M6.87,14.74a.44.44,0,1,1-.44.44.44.44,0,0,1,.44-.44M13,17.9H.72V13.53A5,5,0,0,1,4.3,8.66a5.08,5.08,0,0,0,1.06,3,2,2,0,0,0,1.15.6v1.78a1.14,1.14,0,0,0-.8,1.1,1.16,1.16,0,1,0,2.32,0,1.14,1.14,0,0,0-.8-1.1V12.3a2,2,0,0,0,1.15-.6,5.08,5.08,0,0,0,1.06-3A5,5,0,0,1,13,13.53Z"/><path class="cdi-icon-i1" d="M6.87,8a3.11,3.11,0,0,0,3.06-2.6.33.33,0,0,0,0-.17V4.09A3.11,3.11,0,0,0,8.9,1.74a.05.05,0,0,0,0,0,2,2,0,0,0-4,0A3.07,3.07,0,0,0,3.77,4.07h0v1a.19.19,0,0,0,0,.08A3.11,3.11,0,0,0,6.87,8m0-7.31A1.3,1.3,0,1,1,5.57,2,1.3,1.3,0,0,1,6.87.72M5,2.67a2,2,0,0,0,3.82,0,2.39,2.39,0,0,1,.47,1.42v.83a2.38,2.38,0,0,1-4.76,0V4.09A2.39,2.39,0,0,1,5,2.67"/><polygon class="cdi-icon-i1" points="10.58 12.8 9.7 12.8 9.7 13.41 9.09 13.41 9.09 14.29 9.7 14.29 9.7 14.9 10.58 14.9 10.58 14.29 11.19 14.29 11.19 13.41 10.58 13.41 10.58 12.8"/><path class="cdi-icon-i1" d="M6.87,2.71A.69.69,0,1,0,6.18,2a.69.69,0,0,0,.69.69"/><path class="cdi-icon-i1" d="M17.34,8.27V9.48h3v.89h-3v1.31l.87,0H19l.88,0,.91-.08.85-.1v.91l-.85.11-1,.1-1,.06-.73,0H16.27V7.36H20.4v.91Zm.83,9.05V13.68h5.11v3.64Zm1-2.71v1.78h3V14.61ZM23.3,9.36h1.36v1H23.3v2.77h-1V7h1Zm7.49,2.49q.08-.37.15-.84c0-.32.09-.63.12-.95s.07-.61.09-.9,0-.52,0-.71H26.88v-1h5.4c0,.29,0,.63,0,1s-.05.76-.09,1.16-.1.8-.16,1.18-.11.73-.18,1h2.07v.94H30.19v3.33H29.07V12.79H25.32v-.94Zm7.37-4h2.22v.93H39.12a2.76,2.76,0,0,1,.52.73,2.1,2.1,0,0,1,.2.89,2.31,2.31,0,0,1-.18.91,2.48,2.48,0,0,1-.48.74,2.29,2.29,0,0,1-.73.49,2.12,2.12,0,0,1-.87.18,2.18,2.18,0,0,1-.89-.18,2.2,2.2,0,0,1-.71-.49,2.15,2.15,0,0,1-.48-.74,2.3,2.3,0,0,1-.17-.91,2.09,2.09,0,0,1,.19-.89,2.31,2.31,0,0,1,.5-.73H34.75V7.85H37V6.67h1.14Zm.66,2.5a1.41,1.41,0,0,0-.11-.54A1.54,1.54,0,0,0,38,9.06a1,1,0,0,0-.46-.12.94.94,0,0,0-.47.12,1.49,1.49,0,0,0-.4.31,1.54,1.54,0,0,0-.38,1,1.59,1.59,0,0,0,.38,1,1.27,1.27,0,0,0,.4.3.94.94,0,0,0,.47.12,1,1,0,0,0,.46-.12,1.24,1.24,0,0,0,.39-.3,1.53,1.53,0,0,0,.39-1Zm3.51,5.2a2.32,2.32,0,0,1-.19.91,2.52,2.52,0,0,1-.5.75,2.31,2.31,0,0,1-.73.5,2.18,2.18,0,0,1-.89.18,2.26,2.26,0,0,1-.9-.18,2.36,2.36,0,0,1-1.4-2.16,2.27,2.27,0,0,1,.18-.91,2.12,2.12,0,0,1,.49-.75,2.31,2.31,0,0,1,.73-.5,2.11,2.11,0,0,1,.9-.19,2,2,0,0,1,.89.19,2.35,2.35,0,0,1,1.23,1.25A2.28,2.28,0,0,1,42.33,15.55ZM40,16.92a1.2,1.2,0,0,0,.91-.4,1.34,1.34,0,0,0,.39-1,1.44,1.44,0,0,0-.37-1,1.2,1.2,0,0,0-1.81,0,1.47,1.47,0,0,0,0,1.95A1.15,1.15,0,0,0,40,16.92ZM41.5,9.15V7h1V13.3h-1V12H40.14v-.9H41.5v-1H40.15v-.9Zm5.55,8.53h-.81c-.19-.31-.38-.64-.59-1a10.39,10.39,0,0,1-.59-1.25,11,11,0,0,1-.44-1.49,9.14,9.14,0,0,1,0-3.51,11.4,11.4,0,0,1,.44-1.49,11.17,11.17,0,0,1,.59-1.25c.21-.38.4-.72.59-1h.81a13.4,13.4,0,0,0-1.17,2.91,10.5,10.5,0,0,0-.34,2.6,10.65,10.65,0,0,0,.34,2.62A13.14,13.14,0,0,0,47.05,17.68Zm2.61-2.31h-1V7.48h1ZM52,6.65c.18.3.37.64.58,1a11.17,11.17,0,0,1,.59,1.25,11.4,11.4,0,0,1,.44,1.49,8.2,8.2,0,0,1,0,3.51,11,11,0,0,1-.44,1.49,10.39,10.39,0,0,1-.59,1.25c-.21.38-.4.71-.58,1h-.81a13.58,13.58,0,0,0,1.16-2.9,10.22,10.22,0,0,0,.35-2.62,10.07,10.07,0,0,0-.35-2.6,13.85,13.85,0,0,0-1.16-2.91Z"/></g></g></svg>