<svg xmlns="http://www.w3.org/2000/svg" viewBox="0 0 57.31 19.5"><defs><style>.cdi-icon-s1{fill:#2b4185;}</style></defs><g id="layer_2" data-name="layer 2"><g id="layer_1-2" data-name="layer 1"><path class="cdi-icon-s1" d="M2,2.82l1.59.81v1.7a2.88,2.88,0,1,0,5.76,0V4.39s0,0,0-.08,0,0,0-.07V3.63L10.58,3V4.94h.5V2.65a.59.59,0,0,0,0-.13.32.32,0,0,0-.18-.3L6.65,0A.31.31,0,0,0,6.4,0L6.32,0l-.05,0L2,2.22a.33.33,0,0,0-.19.3.34.34,0,0,0,.18.3m6.51.81a7.58,7.58,0,0,0-2-.25,8,8,0,0,0-2.12.27,0,0,0,0,0,0,0V3A5.26,5.26,0,0,1,8.51,3Zm-2,3.92a2.22,2.22,0,0,1-2.2-2.22V4.42a5.43,5.43,0,0,1,2.22-.36,5.2,5.2,0,0,1,2.19.36v.91A2.22,2.22,0,0,1,6.46,7.55m0-6.84L10,2.52,9.18,3V2.77A.34.34,0,0,0,9,2.49a5.6,5.6,0,0,0-5.21,0,.32.32,0,0,0-.14.27v.15l-.79-.4Z"/><path class="cdi-icon-s1" d="M10.85,5.12H10.6a1.08,1.08,0,0,0-.2,1h.86a1.08,1.08,0,0,0-.2-1Z"/><path class="cdi-icon-s1" d="M10.37,19.5H4.93a.34.34,0,1,1,0-.67H10v-.22a.34.34,0,0,1,.68,0v.55a.34.34,0,0,1-.34.34"/><path class="cdi-icon-s1" d="M7.9,19.5H2.45a.34.34,0,0,1-.33-.34v-.55a.34.34,0,0,1,.67,0v.22H7.9a.34.34,0,0,1,0,.67"/><polygon class="cdi-icon-s1" points="5.78 12.88 5.78 15.07 6.38 14.42 6.98 15.07 6.98 12.68 5.78 12.88"/><path class="cdi-icon-s1" d="M10.62,19h-.45A1.19,1.19,0,0,1,9,17.77v-1.1a1.2,1.2,0,0,1,1.19-1.19h.45a1.19,1.19,0,0,1,1.18,1.19v1.1A1.18,1.18,0,0,1,10.62,19m-.45-2.79a.51.51,0,0,0-.51.51v1.1a.51.51,0,0,0,.51.51h.45a.51.51,0,0,0,.51-.51v-1.1a.51.51,0,0,0-.51-.51Z"/><path class="cdi-icon-s1" d="M11.47,17.91a.33.33,0,0,1-.32-.24.33.33,0,0,1,.22-.42,1.19,1.19,0,0,0,.78-1.05V13.34a4.67,4.67,0,0,0-3.53-4.6L6.75,11.33a.38.38,0,0,1-.27.14.33.33,0,0,1-.27-.14l-2-2.59a4.67,4.67,0,0,0-3.54,4.6V16.2a1.2,1.2,0,0,0,.79,1.05.34.34,0,0,1,.22.42.35.35,0,0,1-.42.22A1.86,1.86,0,0,1,0,16.2V13.34A5.35,5.35,0,0,1,4.25,8a.35.35,0,0,1,.35.12l1.87,2.43L8.22,8.15A.35.35,0,0,1,8.58,8a5.35,5.35,0,0,1,4.25,5.32V16.2a1.87,1.87,0,0,1-1.26,1.69l-.1,0"/><path class="cdi-icon-s1" d="M10.37,16.16a.34.34,0,0,1-.34-.34V13.11H2.79v2.71a.34.34,0,1,1-.67,0v-3a.34.34,0,0,1,.33-.34h7.92a.34.34,0,0,1,.34.34v3a.34.34,0,0,1-.34.34"/><path class="cdi-icon-s1" d="M2.65,19H2.21A1.18,1.18,0,0,1,1,17.77v-1.1a1.19,1.19,0,0,1,1.19-1.19h.44a1.19,1.19,0,0,1,1.19,1.19v1.1A1.18,1.18,0,0,1,2.65,19m-.44-2.79a.51.51,0,0,0-.52.51v1.1a.51.51,0,0,0,.52.51h.44a.51.51,0,0,0,.52-.51v-1.1a.51.51,0,0,0-.52-.51Z"/><path class="cdi-icon-s1" d="M21.1,14l-.61.72a5.31,5.31,0,0,1-.62-.45,8.42,8.42,0,0,1-.61-.59,6.54,6.54,0,0,1-.53-.65,4.21,4.21,0,0,1-.39-.66,4,4,0,0,1-.4.67,5.13,5.13,0,0,1-.53.64,8.36,8.36,0,0,1-.67.66,7.11,7.11,0,0,1-.62.51l-.66-.7a7.87,7.87,0,0,0,1.14-1.06A5.14,5.14,0,0,0,17.33,12a4.4,4.4,0,0,0,.34-1.1,6.64,6.64,0,0,0,.11-1.32V8.68h1.09v.88A7.57,7.57,0,0,0,19,11a4.24,4.24,0,0,0,.39,1.17,4,4,0,0,0,.68,1A8,8,0,0,0,21.1,14Zm1.82-2.74h1.37v.94H22.92v4.93h-1V8.25h1Zm4.58,2.5A2,2,0,0,1,26.34,13a2.28,2.28,0,0,1-.46-1.4,2.18,2.18,0,0,1,.19-.89,2.35,2.35,0,0,1,.51-.72H25.4V9.05h2.07V7.91h1.09V9.05h2V10H29.38a2.37,2.37,0,0,1,.52.72,2,2,0,0,1,.19.89,2.25,2.25,0,0,1-.42,1.34,2.14,2.14,0,0,1-1.07.79v.87q.75,0,1.44-.09c.47,0,.85-.07,1.16-.12v.9l-.83.1-1.07.08c-.38,0-.77.06-1.18.07s-.78,0-1.12,0l-1.93,0v-.92H27.5Zm1.66-2.21a1.29,1.29,0,0,0-.36-.91,1.06,1.06,0,0,0-1.64,0,1.33,1.33,0,0,0,0,1.82,1.07,1.07,0,0,0,1.64,0A1.29,1.29,0,0,0,29.16,11.55Zm2.52,5.54V8.25h1v8.84Zm6.1-8H40V10H38.75a2.73,2.73,0,0,1,.51.73,2.1,2.1,0,0,1,.2.89,2.31,2.31,0,0,1-.18.91,2.48,2.48,0,0,1-.48.74,2.36,2.36,0,0,1-.72.49,2.23,2.23,0,0,1-2.48-.49A2.33,2.33,0,0,1,35,11.65a2.09,2.09,0,0,1,.19-.89,2.31,2.31,0,0,1,.5-.73H34.38V9.1h2.27V7.92h1.13Zm.66,2.5a1.27,1.27,0,0,0-.11-.54,1.44,1.44,0,0,0-.28-.44,1.3,1.3,0,0,0-.39-.31,1,1,0,0,0-.93,0,1.49,1.49,0,0,0-.4.31,1.62,1.62,0,0,0-.27.44,1.38,1.38,0,0,0,0,1.08,1.62,1.62,0,0,0,.27.44,1.49,1.49,0,0,0,.4.31,1,1,0,0,0,.93,0,1.3,1.3,0,0,0,.39-.31,1.44,1.44,0,0,0,.28-.44A1.27,1.27,0,0,0,38.44,11.6ZM42,16.8a2.12,2.12,0,0,1-.19.91,2.27,2.27,0,0,1-.49.75,2.43,2.43,0,0,1-.73.5,2.34,2.34,0,0,1-1.79-4.32,2.2,2.2,0,0,1,1.79,0,2.43,2.43,0,0,1,.73.5,2.27,2.27,0,0,1,.49.75A2.12,2.12,0,0,1,42,16.8Zm-2.34,1.37a1.24,1.24,0,0,0,.92-.4,1.38,1.38,0,0,0,.38-1,1.39,1.39,0,0,0-.37-1,1.15,1.15,0,0,0-.9-.4,1.18,1.18,0,0,0-.91.4,1.39,1.39,0,0,0-.37,1,1.44,1.44,0,0,0,.35,1A1.15,1.15,0,0,0,39.61,18.17Zm1.52-7.77V8.23h1v6.32h-1V13.23H39.76v-.9h1.37v-1H39.77v-.9Zm5.54,8.53h-.81c-.18-.3-.38-.64-.59-1a10.39,10.39,0,0,1-.59-1.25,11,11,0,0,1-.43-1.49,8.65,8.65,0,0,1,0-3.51,11.89,11.89,0,0,1,.43-1.49,11.17,11.17,0,0,1,.59-1.25c.21-.38.41-.72.59-1h.81a13.85,13.85,0,0,0-1.16,2.91,10.53,10.53,0,0,0-.35,2.6A10.68,10.68,0,0,0,45.51,16,13.58,13.58,0,0,0,46.67,18.93Zm5.71-6.42a2.37,2.37,0,0,1,1,.89,1.92,1.92,0,0,1,.26,1.27,2.72,2.72,0,0,1-.27.88,2.46,2.46,0,0,1-.56.73,2.8,2.8,0,0,1-.87.48,3.51,3.51,0,0,1-1.17.18,3.06,3.06,0,0,1-1.29-.26,2.86,2.86,0,0,1-.91-.68,2.75,2.75,0,0,1-.55-.95A3.6,3.6,0,0,1,47.82,14h1.06a2,2,0,0,0,.56,1.48,1.87,1.87,0,0,0,1.35.5,1.58,1.58,0,0,0,1.74-1.31,1,1,0,0,0-.13-.74,2.07,2.07,0,0,0-.63-.51,3.16,3.16,0,0,0-.52-.17l-.54-.11a5.62,5.62,0,0,1-.57-.09,2.54,2.54,0,0,1-.57-.19,3,3,0,0,1-1.13-.78,2,2,0,0,1-.36-1.3,2.22,2.22,0,0,1,.17-.81,2.29,2.29,0,0,1,.51-.73,2.54,2.54,0,0,1,.82-.54,2.9,2.9,0,0,1,1.14-.21A2.67,2.67,0,0,1,52,8.75a2.81,2.81,0,0,1,.83.67,3,3,0,0,1,.44.85,2.75,2.75,0,0,1,.13.78h-1A1.71,1.71,0,0,0,52,9.91a1.52,1.52,0,0,0-1.24-.49,1.46,1.46,0,0,0-1.15.43,1.35,1.35,0,0,0-.37.91.92.92,0,0,0,.28.76,1.7,1.7,0,0,0,.61.35,1.91,1.91,0,0,0,.46.14l.57.11.62.16A3.77,3.77,0,0,1,52.38,12.51ZM55.51,7.9c.18.3.38.64.59,1a11.17,11.17,0,0,1,.58,1.25,11.88,11.88,0,0,1,.44,1.49,7.51,7.51,0,0,1,.19,1.75,7.54,7.54,0,0,1-.19,1.76,11,11,0,0,1-.44,1.49,10.4,10.4,0,0,1-.58,1.25c-.21.38-.41.72-.59,1H54.7A13.58,13.58,0,0,0,55.86,16a10.25,10.25,0,0,0,.36-2.62,10.1,10.1,0,0,0-.36-2.6A13.85,13.85,0,0,0,54.7,7.9Z"/></g></g></svg>